HIERARCHY
ROOT Hips
{
 OFFSET 0.000000 0.000000 0.000000
 CHANNELS 6 Xposition Yposition Zposition Yrotation Xrotation Zrotation
 JOINT Chest
 {
  OFFSET 0.000000 9.585900 0.002600
  CHANNELS 3 Yrotation Xrotation Zrotation
  JOINT Chest2
  {
   OFFSET 0.000000 9.601200 -0.005300
   CHANNELS 3 Yrotation Xrotation Zrotation
   JOINT Chest3
   {
    OFFSET 0.000000 9.561800 0.000000
    CHANNELS 3 Yrotation Xrotation Zrotation
    JOINT Chest4
    {
     OFFSET 0.000000 9.552100 0.000000
     CHANNELS 3 Yrotation Xrotation Zrotation
     JOINT Neck
     {
      OFFSET 0.000000 14.453000 0.000000
      CHANNELS 3 Yrotation Xrotation Zrotation
      JOINT Head
      {
       OFFSET 0.000000 8.936500 -0.011300
       CHANNELS 3 Yrotation Xrotation Zrotation
       End Site
       {
        OFFSET 0.000000 17.073600 -0.006000
       }
      }
     }
     JOINT RightCollar
     {
      OFFSET -2.921100 9.558500 0.000000
      CHANNELS 3 Yrotation Xrotation Zrotation
      JOINT RightShoulder
      {
       OFFSET -13.519700 0.000000 0.000000
       CHANNELS 3 Yrotation Xrotation Zrotation
       JOINT RightElbow
       {
        OFFSET 0.000000 -29.696600 0.000000
        CHANNELS 3 Yrotation Xrotation Zrotation
        JOINT RightWrist
        {
         OFFSET 0.000000 -24.004700 0.000000
         CHANNELS 3 Yrotation Xrotation Zrotation
         End Site
         {
          OFFSET 0.000000 -17.728500 0.000000
         }
        }
       }
      }
     }
     JOINT LeftCollar
     {
      OFFSET 2.921100 9.558500 0.000000
      CHANNELS 3 Yrotation Xrotation Zrotation
      JOINT LeftShoulder
      {
       OFFSET 13.519700 0.000000 0.000000
       CHANNELS 3 Yrotation Xrotation Zrotation
       JOINT LeftElbow
       {
        OFFSET 0.000000 -29.696600 0.000000
        CHANNELS 3 Yrotation Xrotation Zrotation
        JOINT LeftWrist
        {
         OFFSET 0.000000 -24.004700 0.000000
         CHANNELS 3 Yrotation Xrotation Zrotation
         End Site
         {
          OFFSET 0.000000 -17.728500 0.000000
         }
        }
       }
      }
     }
    }
   }
  }
 }
 JOINT RightHip
 {
  OFFSET -7.771700 -0.012900 -0.001300
  CHANNELS 3 Yrotation Xrotation Zrotation
  JOINT RightKnee
  {
   OFFSET 0.000000 -40.869800 0.001200
   CHANNELS 3 Yrotation Xrotation Zrotation
   JOINT RightAnkle
   {
    OFFSET 0.000000 -39.717900 0.002100
    CHANNELS 3 Yrotation Xrotation Zrotation
    JOINT RightToe
    {
     OFFSET 0.000000 -4.965400 11.033500
     CHANNELS 3 Yrotation Xrotation Zrotation
     End Site
     {
      OFFSET 0.000000 -1.423100 5.872300
     }
    }
   }
  }
 }
 JOINT LeftHip
 {
  OFFSET 7.771700 -0.012900 -0.001300
  CHANNELS 3 Yrotation Xrotation Zrotation
  JOINT LeftKnee
  {
   OFFSET 0.000000 -40.869800 0.001200
   CHANNELS 3 Yrotation Xrotation Zrotation
   JOINT LeftAnkle
   {
    OFFSET 0.000000 -39.717900 0.002100
    CHANNELS 3 Yrotation Xrotation Zrotation
    JOINT LeftToe
    {
     OFFSET 0.000000 -4.965400 11.033500
     CHANNELS 3 Yrotation Xrotation Zrotation
     End Site
     {
      OFFSET 0.000000 -1.423100 5.872300
     }
    }
   }
  }
 }
}
MOTION
Frames: 6
Frame Time: 0.008333
0.000000 85.388000 0.000000 0.000000 -5.767877 0.000000 0.000000 11.653817 0.000000 0.000000 -5.885947 0.000000 0.000000 -0.000000 0.000000 0.000000 -0.000000 0.000000 0.000000 12.528835 0.000000 0.000000 0.711642 0.000000 0.000000 -0.000000 0.000000 0.000000 0.000000 -90.000000 0.000000 -2.309062 0.000000 0.000000 2.309062 0.000000 0.000000 -0.000000 0.000000 0.000000 -0.000000 90.000000 0.000000 -2.309062 0.000000 0.000000 2.309062 0.000000 0.000000 8.520406 0.000000 0.000000 1.905762 0.000000 -0.000000 -4.658285 0.000000 0.000000 -0.000000 0.000000 0.000000 8.520406 0.000000 0.000000 1.905762 0.000000 -0.000000 -4.658285 0.000000 0.000000 -0.000000 0.000000
6.335323 49.952144 43.640833 173.784949 -30.802313 -5.803289 7.778445 20.660144 4.673867 0.966847 2.905724 0.378136 1.581091 4.714326 0.639379 6.382274 17.609734 3.167255 -3.885905 21.907155 5.561967 -8.526386 5.456069 11.105412 -1.647292 -3.946061 -6.491961 11.928545 -10.516724 -3.111744 -149.387100 -49.079506 155.417193 -13.542465 -14.779813 20.332110 -11.105120 -6.956328 0.875382 -5.341460 -14.139066 2.327029 149.558693 -48.888290 -165.644123 45.091282 0.898528 -28.427017 -0.599944 -49.470777 8.311716 -139.518931 85.313219 -127.884575 0.059283 -14.129580 -4.726577 -0.045452 0.636899 -0.017859 -9.358029 -53.425702 14.611874 -159.612608 81.326200 -166.197810 -0.097611 -14.962997 6.250787 -0.104738 -0.199339 -0.052323
6.341133 49.942599 43.629154 173.845907 -30.838286 -5.797999 7.722204 20.764209 4.645064 0.960149 2.999159 0.384588 1.578817 4.766324 0.641186 6.341506 17.707225 3.158998 -3.918445 21.719035 5.483324 -8.582752 5.103126 10.988601 -1.488465 -4.039865 -6.459043 11.949968 -10.551442 -3.466068 -149.214703 -48.983806 155.415177 -13.504530 -14.677752 20.911193 -11.184959 -6.925173 0.823754 -5.338744 -14.152108 2.274054 149.072863 -48.715054 -165.244177 45.029187 1.242611 -28.748158 -0.636325 -49.435114 8.292508 -139.877250 85.295019 -128.253702 0.023483 -14.149175 -4.748921 -0.023850 0.625431 -0.000437 -9.391038 -53.397961 14.577872 -159.615820 81.305910 -166.220022 -0.111399 -14.964108 6.244793 -0.086622 -0.203996 -0.045523
6.349833 49.933823 43.612980 173.905607 -30.908230 -5.800161 7.664944 20.992392 4.636784 0.960150 3.006055 0.384795 1.575757 4.822291 0.644712 6.296667 17.810912 3.156047 -3.953108 21.526355 5.399446 -8.641769 4.741297 10.863506 -1.304344 -4.144170 -6.413981 11.973879 -10.601510 -3.852331 -149.087140 -48.938901 155.426339 -13.466753 -14.591206 21.480270 -11.260116 -6.927639 0.766548 -5.305850 -14.154508 2.218265 148.553450 -48.585145 -164.797549 44.971694 1.608018 -29.123891 -0.667300 -49.363959 8.275257 -140.590602 85.287413 -128.962961 -0.030466 -14.215284 -4.773813 -0.003280 0.643371 0.010026 -9.407691 -53.319145 14.537680 -159.654667 81.294428 -166.262846 -0.144287 -15.018904 6.226237 -0.064981 -0.165324 -0.033159
6.363005 49.920542 43.603731 173.959519 -30.939841 -5.828471 7.606429 21.178428 4.656699 0.962609 3.014640 0.384828 1.572048 4.882222 0.649913 6.248264 17.920540 3.157896 -3.988583 21.331576 5.314918 -8.702018 4.375627 10.737832 -1.098753 -4.245422 -6.357114 12.010200 -10.665464 -4.272629 -149.025088 -48.938279 155.459820 -13.420403 -14.517121 22.046152 -11.333503 -6.959050 0.705671 -5.258749 -14.146438 2.153484 148.029703 -48.502676 -164.326236 44.905232 2.008574 -29.558157 -0.723197 -49.331191 8.303742 -140.851077 85.270655 -129.223105 -0.040986 -14.265463 -4.789367 -0.005004 0.667615 0.015701 -9.477412 -53.297954 14.559386 -159.767117 81.268788 -166.382307 -0.150310 -15.029590 6.218899 -0.066460 -0.164385 -0.034693
6.376090 49.907104 43.594401 174.012589 -30.980034 -5.857869 7.546871 21.337937 4.679097 0.960756 3.055674 0.389123 1.568240 4.945456 0.656815 6.198759 18.034358 3.164912 -4.021042 21.136690 5.232094 -8.757135 4.009582 10.614516 -0.872216 -4.323864 -6.291391 12.053899 -10.750594 -4.719704 -149.030769 -48.976099 155.519382 -13.357027 -14.450005 22.629684 -11.403923 -7.005436 0.640756 -5.217932 -14.138717 2.082393 147.513861 -48.465937 -163.829655 44.805627 2.465993 -30.050778 -0.768941 -49.289690 8.326819 -141.088363 85.254090 -129.454413 -0.048094 -14.317760 -4.803681 -0.005705 0.694803 0.020214 -9.537161 -53.268932 14.575805 -159.851240 81.242130 -166.469392 -0.156971 -15.042303 6.211887 -0.068428 -0.161114 -0.033829
